<svg width="190" height="36" viewBox="0 0 190 36" fill="none" xmlns="http://www.w3.org/2000/svg">
<path fill-rule="evenodd" clip-rule="evenodd" d="M48.8213 15.4247C48.8187 19.5246 48.9166 21.3749 49.1868 22.318C49.4211 23.1349 49.869 23.8951 50.4122 24.3976C50.9554 24.8975 51.7662 25.3021 52.6209 25.4928C53.4343 25.6757 56.2248 25.7968 59.6357 25.7968H65.299V22.7045C57.0203 22.7123 54.2684 22.5989 53.8436 22.4572C53.4189 22.3154 52.9272 21.9083 52.7496 21.5501C52.5231 21.0914 52.4278 19.2747 52.4278 15.3603V9.81994H48.8239L48.8213 15.4247ZM68.002 9.9926C67.8835 10.0854 67.8037 13.5359 67.8269 17.6589C67.8552 23.3204 67.9453 25.2325 68.1899 25.4799C68.3804 25.668 69.1398 25.8046 69.997 25.802L71.4772 25.7968V9.81994C68.9493 9.81994 68.1204 9.89726 68.002 9.9926ZM78.2989 10.2116C77.7326 10.4152 76.9783 10.7992 76.6257 11.062C76.2704 11.3274 75.7247 12.1701 75.4106 12.9354C74.9241 14.1234 74.8366 14.8243 74.8288 17.6795C74.8211 19.9266 74.9473 21.4753 75.2073 22.3824C75.4595 23.2637 75.8663 23.9595 76.3682 24.3795C76.793 24.7351 77.748 25.199 78.492 25.4129C79.4985 25.7041 81.1898 25.802 85.1207 25.8046C89.26 25.8072 90.6475 25.7195 91.5563 25.4026C92.1921 25.181 92.985 24.7429 93.317 24.4311C93.6491 24.1193 94.1125 23.5163 94.3467 23.0911C94.6968 22.4572 94.7741 21.5295 94.7741 17.9372C94.7741 14.0693 94.7123 13.4379 94.2592 12.536C93.976 11.9743 93.3376 11.2424 92.8434 10.9126C92.3465 10.5827 91.5357 10.2039 91.0414 10.0673C90.5446 9.93333 87.7078 9.82768 84.7345 9.83284C80.711 9.84057 79.066 9.93849 78.2989 10.2116ZM79.8048 13.1803C80.1086 13.0591 82.3842 12.9586 84.8632 12.9586C87.3396 12.9586 89.6282 13.0643 89.9474 13.1931C90.2666 13.322 90.7582 13.8039 91.044 14.2651C91.5022 15.0047 91.5511 15.4479 91.4687 18.0661C91.4172 19.6973 91.3014 21.2048 91.2113 21.4161C91.1212 21.63 90.6424 22.0062 90.143 22.2536C89.3913 22.6272 88.5212 22.7045 84.9919 22.7045C81.8179 22.7045 80.5334 22.6092 79.9078 22.3283C79.447 22.1196 78.9373 21.6867 78.7752 21.362C78.6053 21.0218 78.4765 19.4654 78.4688 17.6795C78.4611 15.3088 78.5486 14.4481 78.855 13.9946C79.0712 13.6673 79.5011 13.3014 79.8048 13.1803ZM98.8774 10.6188L98.1746 11.4151L98.378 25.668L101.596 25.7968C101.596 13.6673 101.642 12.92 101.997 12.9767C102.224 13.0128 102.816 13.9842 103.369 15.2315C103.905 16.4375 104.528 17.829 104.757 18.3238C104.983 18.8211 105.704 20.4446 106.356 21.9315C107.009 23.4209 107.825 24.8975 108.173 25.217C108.68 25.6835 109.105 25.7968 110.348 25.7968C111.198 25.7968 112.124 25.6809 112.408 25.5391C112.722 25.382 112.848 25.1552 112.732 24.9593C112.605 24.7463 112.648 24.7034 112.861 24.8305C113.082 24.9645 113.494 24.3383 114.215 22.769C114.784 21.5295 115.975 18.834 116.861 16.7776C117.888 14.3991 118.612 13.0411 118.851 13.0411C119.16 13.0411 119.237 13.5926 119.271 16.0046C119.294 17.6357 119.322 20.5039 119.335 22.3824L119.358 25.7968L122.576 25.668C122.694 15.8834 122.666 12.5489 122.589 11.9459C122.501 11.2682 122.226 10.6523 121.868 10.3302C121.384 9.89726 120.936 9.80964 119.165 9.8148C117.327 9.81995 116.954 9.89725 116.4 10.3998C116.012 10.7528 115 12.7963 113.821 15.618C112.755 18.1692 111.625 20.8105 111.308 21.4882C110.992 22.1634 110.675 22.72 110.606 22.7226C110.534 22.7252 110.351 22.5783 110.196 22.3953C110.042 22.2098 108.886 19.6251 107.63 16.6488C106.173 13.2034 105.084 10.9796 104.628 10.5286C103.962 9.86891 103.763 9.81994 101.745 9.81994C99.6445 9.81994 99.557 9.84572 98.8774 10.6188ZM129.398 10.2194C128.759 10.4255 128.038 10.7992 127.794 11.0466C127.547 11.2939 127.403 11.5826 127.472 11.6882C127.539 11.7939 127.451 11.8531 127.279 11.8171C127.104 11.781 126.731 12.2165 126.45 12.7834C126.048 13.5977 125.92 14.4919 125.837 17.0353C125.781 18.8185 125.861 20.8904 126.018 21.6738C126.231 22.7535 126.532 23.3256 127.269 24.0729C127.889 24.6991 128.705 25.1913 129.526 25.4361C130.53 25.7324 132.062 25.7994 136.497 25.7427L142.181 25.668C144.315 24.3615 144.9 23.7508 145.306 22.9597C145.865 21.8722 145.896 21.5604 145.821 17.6795C145.749 13.8399 145.7 13.4766 145.1 12.3969C144.624 11.5413 144.12 11.0697 143.17 10.593C141.926 9.97198 141.692 9.94621 136.219 9.89468C131.823 9.85344 130.296 9.92561 129.398 10.2194ZM131.017 13.0978C131.328 13.0385 133.612 12.987 136.091 12.9818C138.966 12.9741 140.804 13.0772 141.172 13.2627C141.491 13.4251 141.867 13.8167 142.009 14.1363C142.153 14.4558 142.269 16.1669 142.269 17.9372C142.269 20.9754 142.233 21.1996 141.025 22.5757L136.436 22.6582C133.91 22.7045 131.583 22.6762 131.264 22.5937C130.945 22.5139 130.417 22.1866 130.093 21.867C129.544 21.3285 129.495 21.0424 129.431 17.9372C129.367 14.8604 129.405 14.5306 129.905 13.8966C130.203 13.5153 130.703 13.1571 131.017 13.0978ZM150.313 9.96941C150.107 10.039 150.035 10.3791 150.118 10.9151C150.223 11.6315 150.21 11.6599 150.022 11.1084L149.804 10.4642C149.366 11.5027 149.253 14.4326 149.24 18.6459C149.227 23.1632 149.307 25.4953 149.477 25.4103C149.618 25.3407 149.783 25.4258 149.842 25.6036C149.901 25.7814 149.961 25.7221 149.971 25.4747C149.981 25.2273 149.868 24.9954 149.719 24.9593C149.541 24.9181 149.528 24.6733 149.68 24.2507C149.896 23.6528 149.925 23.6838 150.082 24.7017L150.249 25.7968C152.334 25.7968 152.568 25.7067 152.576 25.3459C152.581 25.0985 152.573 22.5757 152.561 19.7411C152.548 16.9065 152.63 14.2626 152.743 13.8631C152.859 13.4663 153.088 13.1777 153.256 13.2189C153.423 13.2627 154.175 14.1234 154.929 15.1335C155.681 16.1411 157.688 18.7954 159.387 21.0295C161.086 23.2612 162.796 25.248 163.184 25.4438C163.573 25.6371 164.675 25.802 165.63 25.8072C166.974 25.8175 167.514 25.7041 168.011 25.315L168.655 24.8125L168.722 9.81994H165.179C165.179 19.6071 165.092 22.4494 164.986 22.4546C164.881 22.4597 164.387 21.9727 163.892 21.3723C163.396 20.7719 162.644 19.7926 162.219 19.1974C161.794 18.6021 160.144 16.422 158.551 14.3527C156.957 12.2861 155.395 10.4178 155.076 10.2039C154.679 9.93848 153.889 9.82252 152.566 9.83798C151.503 9.85087 150.491 9.91014 150.313 9.96941ZM172.13 17.8084V25.7968H175.734V19.0969C180.007 19.1123 180.653 19.2128 181.268 19.6045C181.693 19.8751 182.561 20.8054 183.199 21.6738C183.835 22.5396 184.793 23.8229 185.323 24.5238L186.288 25.7968C189.081 25.7968 189.939 25.7092 189.998 25.6036C190.054 25.4979 189.068 24.0188 187.807 22.318C186.546 20.6172 185.019 18.8031 184.419 18.2851C183.346 17.36 183.336 17.3394 183.907 17.0611C184.226 16.9065 184.942 16.1695 185.498 15.4247C186.054 14.68 187.212 13.1725 188.072 12.0748C188.932 10.977 189.635 10.0209 189.635 9.94879C189.635 9.87921 188.765 9.81994 187.704 9.81994H185.773C181.495 15.5304 181.011 16.0277 180.303 16.1489C179.842 16.2287 178.656 16.2571 177.665 16.2133L175.863 16.1334L175.747 9.81994H172.13V17.8084Z" fill="white" fill-opacity="0.94"/>
<path d="M7.65934 0.261283C7.65934 0.218185 7.57743 0.187701 7.47662 0.195059C7.37582 0.201366 7.19835 0.226595 7.08284 0.251823C6.96733 0.276 6.14092 0.438933 5.24519 0.613428C4.34947 0.788975 3.19228 1.07384 2.67248 1.24729C2.15269 1.42178 1.44808 1.71401 1.10681 1.89797C0.765528 2.08192 0.376996 2.37415 0.243635 2.5476C0.110274 2.72104 1.52588e-05 3.00486 1.52588e-05 3.1783C1.52588e-05 3.35175 0.080872 3.59562 0.18063 3.71966C0.280388 3.8437 0.621666 4.10965 0.939842 4.31042C1.25802 4.51015 1.84817 4.79397 2.25245 4.93903C2.65673 5.08514 3.48315 5.32691 4.0901 5.47618C4.69705 5.6265 5.8784 5.86617 6.71531 6.01123C7.55223 6.15524 8.88794 6.34551 9.6818 6.4338C10.4757 6.5221 11.1614 6.59358 11.2044 6.59358C11.2475 6.59253 10.9892 6.746 10.63 6.93522C10.2709 7.12338 10.0262 7.30103 10.0871 7.33046C10.1491 7.35989 10.1942 7.43032 10.19 7.48814C10.1848 7.54595 10.2394 7.61428 10.3119 7.64056C10.4001 7.67279 10.4151 7.63775 10.357 7.53544C10.2877 7.4135 10.2982 7.41455 10.4095 7.5407C10.4914 7.6332 10.7214 7.69627 10.9682 7.69312C11.1992 7.68996 11.468 7.73727 11.5657 7.79823C11.7001 7.88128 11.7904 7.86446 11.9332 7.72781C12.0382 7.62794 12.2062 7.5449 12.307 7.54385C12.4078 7.54175 12.8919 7.70678 13.3834 7.90861C13.8748 8.11043 14.5059 8.38269 14.7863 8.51304C15.0666 8.64338 15.2788 8.71381 15.2588 8.67071C15.2378 8.62761 15.2924 8.615 15.3785 8.64443C15.4646 8.67387 15.5119 8.7443 15.4835 8.80211C15.4552 8.85992 15.6085 8.9724 15.8248 9.05229C16.1892 9.18684 16.2616 9.17843 16.7961 8.93561C17.1133 8.7916 17.9523 8.41843 18.66 8.10728C19.3678 7.79508 20.0293 7.53859 20.1302 7.53649C20.231 7.53334 20.3727 7.60482 20.4452 7.69417C20.5176 7.78247 20.6352 7.84449 20.7077 7.82977C20.7833 7.81505 20.8285 7.89179 20.8148 8.01373C20.8012 8.12936 20.8243 8.18927 20.8673 8.14828C20.9093 8.10623 21.0385 8.1241 21.154 8.18822C21.2695 8.25234 21.3283 8.26286 21.2842 8.2124C21.2401 8.16089 21.3934 8.0358 21.6255 7.93489C21.8565 7.83397 22.1295 7.77931 22.2303 7.81295C22.3847 7.86551 22.3889 7.85815 22.2566 7.76249C22.1253 7.66789 22.139 7.64897 22.3353 7.64792C22.4655 7.64686 22.5958 7.57538 22.6241 7.48814C22.6525 7.40089 22.6294 7.35359 22.5716 7.38302C22.5139 7.41245 22.455 7.39458 22.4403 7.34518C22.4256 7.29577 22.1537 7.10971 21.8365 6.93206L21.259 6.60725C21.8292 6.52 22.5139 6.44432 23.1492 6.3823C23.7845 6.32028 25.0131 6.15104 25.8794 6.00492C26.7457 5.85986 27.8094 5.64752 28.2421 5.53294C28.6758 5.41837 29.3373 5.226 29.7122 5.10406C30.0871 4.98318 30.6667 4.74771 30.9985 4.58268C31.3304 4.41764 31.7935 4.10439 32.0276 3.88785C32.3595 3.5788 32.4508 3.41902 32.4477 3.15202C32.4435 2.91866 32.3343 2.69056 32.1011 2.43302C31.9132 2.22594 31.4994 1.93791 31.1823 1.79285C30.8652 1.64884 30.5334 1.49432 30.4473 1.45122C30.3611 1.40707 29.7699 1.22206 29.1346 1.04021C28.4993 0.858353 27.4125 0.611326 26.7194 0.491492C26.0264 0.372708 25.305 0.242362 25.116 0.202417C24.908 0.158268 24.7757 0.170882 24.7789 0.235004C24.782 0.292819 25.2441 0.596609 25.8048 0.909861C26.5357 1.31772 27.1521 1.56685 27.9795 1.78549C28.6474 1.96209 29.3121 2.21122 29.5547 2.37625C29.7857 2.53288 29.9894 2.75363 30.0062 2.86716C30.0241 2.98068 29.9527 3.16149 29.8487 3.26871C29.7447 3.37593 29.4948 3.54727 29.2922 3.64818C29.0895 3.75015 28.6169 3.94146 28.2421 4.07286C27.8672 4.20531 27.2518 4.3777 26.877 4.45549C26.5021 4.53432 25.746 4.67098 25.1968 4.76033C24.6476 4.84863 23.5849 4.98948 22.8341 5.07253C22.0833 5.15452 20.2635 5.27435 18.7913 5.33743C16.9211 5.41626 15.3218 5.41942 13.4884 5.34478C12.0445 5.28592 10.1774 5.15978 9.34053 5.06517C8.50361 4.97056 7.1322 4.75823 6.29528 4.59529C5.45836 4.43131 4.41773 4.16851 3.98509 4.01189C3.5514 3.85526 3.01796 3.60298 2.79954 3.45266C2.53352 3.26976 2.40226 3.09947 2.40576 2.94179C2.40786 2.79988 2.54647 2.60436 2.75124 2.45299C2.9392 2.31424 3.25738 2.13238 3.46005 2.04934C3.66271 1.9663 4.18146 1.81387 4.61514 1.71086C5.07928 1.59943 5.86579 1.27988 6.5305 0.930884C7.15005 0.60607 7.65829 0.304382 7.65934 0.261283Z" fill="white" fill-opacity="0.83"/>
<path d="M19.539 3.0837C19.5747 2.99119 19.5904 2.91551 19.5747 2.91551C19.5579 2.91551 19.309 3.28237 19.0213 3.73017C18.7335 4.17798 18.5172 4.58058 18.5403 4.62367C18.5624 4.66677 18.806 4.70356 19.0801 4.70567C19.4676 4.70777 19.6272 4.65416 19.7962 4.46915C19.9149 4.3367 20.0924 4.09914 20.19 3.94041C20.2866 3.78168 20.3423 3.60403 20.3139 3.54622C20.2856 3.4884 20.3202 3.40536 20.3916 3.36226C20.4872 3.30445 20.4945 3.32547 20.4189 3.4411C20.3433 3.55673 20.3507 3.57775 20.4462 3.51994C20.5502 3.45687 20.5491 3.40746 20.4452 3.27922C20.3727 3.18882 20.3601 3.11734 20.4189 3.11839C20.4767 3.11839 20.4357 3.07003 20.3286 3.00906C20.2079 2.94074 20.0882 2.93548 20.0136 2.99645C19.9474 3.04901 19.7994 3.1289 19.6839 3.17305C19.518 3.23612 19.4875 3.2172 19.539 3.0837Z" fill="white" fill-opacity="0.83"/>
<path d="M13.0557 3.3097C13.0767 3.23717 13.0032 3.16989 12.8909 3.15833C12.7785 3.14782 12.6903 3.18356 12.6934 3.23717C12.6976 3.29183 12.6294 3.31286 12.5433 3.28342C12.4572 3.25504 12.3858 3.27817 12.3858 3.33598C12.3858 3.3938 12.3385 3.41797 12.2808 3.38854C12.223 3.36016 12.1758 3.36016 12.1758 3.38854C12.1758 3.41797 12.223 3.5357 12.2808 3.65133C12.3606 3.81111 12.3543 3.84265 12.2545 3.78378C12.1821 3.74174 12.2766 3.93095 12.4645 4.20425C12.7953 4.68675 12.8226 4.70251 13.3309 4.70251C13.6809 4.70251 13.8555 4.65871 13.8548 4.57112C13.8548 4.49858 13.7131 4.19164 13.5398 3.88785C13.3676 3.58406 13.2027 3.33598 13.1733 3.33598C13.1439 3.33598 13.1555 3.39485 13.1985 3.46738C13.2496 3.55428 13.2321 3.5718 13.146 3.51994C13.0746 3.47684 13.0337 3.38223 13.0557 3.3097Z" fill="white" fill-opacity="0.83"/>
<path d="M24.0837 3.20458C24.0942 3.16149 24.0375 3.12575 23.9567 3.12575C23.8758 3.12575 23.8338 3.16149 23.8632 3.20458C23.8926 3.24768 23.6731 3.29078 23.377 3.29919C22.8961 3.31286 22.7764 3.36752 22.2839 3.7985C21.9804 4.06445 21.7557 4.32934 21.784 4.38716C21.8155 4.45023 22.0781 4.46705 22.4403 4.43026C22.7722 4.39557 23.6112 4.27363 24.3042 4.15905C24.9973 4.04553 25.5843 3.93095 25.6085 3.90677C25.6326 3.88154 25.5728 3.86157 25.4772 3.86157C25.3669 3.86157 25.3312 3.81427 25.3806 3.73438C25.4362 3.64503 25.3963 3.62506 25.2493 3.66605C25.1338 3.69864 24.9826 3.67341 24.9133 3.60929C24.844 3.54622 24.7253 3.4432 24.6508 3.38118C24.5752 3.31916 24.4124 3.27186 24.2885 3.27606C24.1646 3.28027 24.0722 3.24768 24.0837 3.20458Z" fill="white" fill-opacity="0.83"/>
<path d="M16.5147 3.5746C16.4937 3.39064 16.4286 3.34439 16.2165 3.36436C16.0663 3.37803 15.8637 3.41797 15.766 3.45371C15.6683 3.4905 15.5413 3.4905 15.4846 3.45371C15.4247 3.41587 15.4132 3.4432 15.4583 3.51994C15.5024 3.59457 15.4825 3.65133 15.4132 3.65133C15.3449 3.65133 15.2273 3.81742 15.1507 4.01925C15.074 4.22212 15.011 4.45864 15.011 4.54484C15.011 4.66467 15.1433 4.70251 15.5623 4.70462C16.1083 4.70567 16.1157 4.70146 16.3278 4.25786C16.4454 4.01084 16.5294 3.70389 16.5147 3.5746Z" fill="white" fill-opacity="0.83"/>
<path d="M6.41286 1.92844C7.18573 1.47118 8.24316 0.84257 8.76295 0.53037C9.64713 -0.000475157 9.74163 -0.0341129 10.2331 0.0173949C10.5218 0.0468279 11.4197 0.0983356 12.2282 0.131973C13.0368 0.16456 13.8989 0.213965 14.1446 0.240245C14.5563 0.283343 14.6539 0.36113 15.4047 1.23781C15.8521 1.76025 16.2427 2.18387 16.2711 2.17757C16.2994 2.17231 16.6543 1.75499 17.0586 1.25148C17.654 0.508295 17.864 0.319083 18.1612 0.257064C18.3639 0.215016 18.954 0.178225 19.4738 0.176123C19.9936 0.175072 20.9156 0.131973 21.5215 0.082568C22.3857 0.0110878 22.6923 0.0215996 22.9391 0.135127C23.1124 0.213965 24.1709 0.813137 25.2902 1.46592C26.4107 2.1187 27.4261 2.78094 27.5479 2.93652C27.717 3.15411 27.7411 3.25292 27.6498 3.35699C27.5836 3.43267 27.277 3.55146 26.9672 3.62189C26.6575 3.69337 26.144 3.78482 25.8268 3.82687C25.3417 3.88994 25.2661 3.87837 25.3543 3.75434C25.4373 3.63871 25.4142 3.61978 25.2493 3.66604C25.1338 3.69862 24.9826 3.67339 24.9133 3.60927C24.844 3.5462 24.7253 3.44319 24.6507 3.38117C24.5751 3.31915 24.4124 3.27184 24.2885 3.27605C24.1646 3.28025 24.0763 3.25923 24.0932 3.23085C24.1089 3.20142 24.4827 3.11942 24.9217 3.04689C25.3617 2.97436 25.7218 2.89132 25.7218 2.86294C25.7218 2.8335 25.5213 2.70946 25.2755 2.58753C25.0298 2.46454 24.3683 2.08611 23.8054 1.74658C23.0336 1.28091 22.7364 1.15162 22.5978 1.22205C22.497 1.27355 21.9195 1.82963 21.3146 2.45718C20.7098 3.08473 20.2593 3.52728 20.3139 3.44108C20.3685 3.35384 20.4263 3.22454 20.442 3.15201C20.4578 3.07948 20.4 2.99644 20.3139 2.96805C20.2278 2.93862 20.0262 2.98487 19.8676 3.06897C19.709 3.15306 19.5547 3.20142 19.5263 3.17619C19.498 3.15201 19.5641 2.99959 19.6754 2.83981C19.7857 2.67898 20.1994 2.22802 21.3115 1.12849L20.4977 1.14111C20.0503 1.14846 19.3678 1.1842 18.2778 1.28617L17.5364 2.23223C17.129 2.75256 16.7257 3.3202 16.6407 3.49364C16.5031 3.77431 16.4853 3.78272 16.4832 3.57248C16.4811 3.35909 16.4422 3.34122 16.0873 3.39378C15.871 3.42637 15.6295 3.50941 15.5507 3.57774C15.4299 3.68391 15.4299 3.65973 15.5507 3.42006C15.6851 3.15201 15.6694 3.10576 15.2493 2.57912C15.0047 2.27322 14.6497 1.83804 14.1184 1.20523L11.1782 1.09906L12.0581 2.03356C12.5422 2.54758 13.0063 3.10996 13.2384 3.59876L13.0231 3.33597C12.8425 3.11522 12.7921 3.0984 12.7134 3.23085C12.6619 3.31704 12.5664 3.35278 12.5023 3.30969C12.4383 3.26659 12.3857 3.27815 12.3857 3.33597C12.3857 3.39378 12.3385 3.41691 12.2807 3.38853C12.223 3.35909 12.1757 3.35909 12.1757 3.38853C12.1757 3.41691 12.224 3.54725 12.2839 3.6776C12.3581 3.83878 12.3143 3.8125 12.1526 3.59876C12.0214 3.42532 11.4407 2.79356 9.81304 1.10536L9.44551 1.28932C9.24284 1.39023 8.67685 1.71084 8.18541 2.00307C7.69397 2.29425 7.17417 2.60329 7.03031 2.68844C6.78039 2.83666 6.77829 2.84717 6.97781 2.91444C7.09332 2.95334 7.70762 3.07212 8.34292 3.17829C9.39616 3.35489 9.54737 3.40955 10.0546 3.80059C10.3601 4.03605 10.608 4.27677 10.6059 4.33459C10.6038 4.40186 10.3097 4.41237 9.78784 4.36507C9.33945 4.32407 8.19276 4.14537 7.24033 3.96878C6.2879 3.79218 5.33022 3.60086 5.11391 3.5441C4.89759 3.48734 4.72013 3.38222 4.71908 3.30969C4.71908 3.23716 4.78313 3.08368 4.86294 2.96805C4.94169 2.85242 5.63895 2.38465 6.41286 1.92844Z" fill="white" fill-opacity="0.94"/>
<path fill-rule="evenodd" clip-rule="evenodd" d="M2.56955 7.27789C2.84572 6.75755 3.11769 6.27191 3.17545 6.19833C3.2374 6.11949 3.37077 6.09216 3.50098 6.13315C3.62279 6.171 3.8286 6.24353 3.95881 6.29293C4.03271 6.32154 4.08349 6.34119 4.10535 6.37802C4.15338 6.45894 4.06174 6.62275 3.76875 7.14649C3.53458 7.56591 3.26891 8.0505 3.1765 8.22395C3.01374 8.53405 3.01899 8.55402 3.49783 9.35396C3.92521 10.0688 4.01447 10.1602 4.22133 10.1003C4.35155 10.0625 5.6862 9.42334 7.18783 8.67911C8.68945 7.93593 9.97685 7.32729 10.0493 7.32834C10.1218 7.32939 10.169 7.38405 10.1543 7.44818C10.1396 7.51335 10.1995 7.59429 10.2856 7.62793C10.4 7.67103 10.4189 7.6458 10.357 7.53543C10.2919 7.42085 10.3045 7.42295 10.4095 7.54383C10.4956 7.6437 10.7067 7.69836 10.9681 7.68995C11.1992 7.68154 11.4701 7.72779 11.5709 7.79191C11.7336 7.89598 11.6475 8.03684 10.7938 9.06489C10.2656 9.70085 9.58097 10.4934 9.27225 10.8256C8.96352 11.1578 8.722 11.4542 8.7367 11.4837C8.7514 11.5131 9.37725 11.6739 10.1281 11.8411C10.8789 12.0071 11.9657 12.3204 12.5433 12.5359C13.1208 12.7503 13.7236 12.9921 14.1709 13.217V14.5573C14.1709 15.2942 14.1215 16.5356 14.0617 17.3166C13.9735 18.4561 13.9787 18.7494 14.0879 18.8062C14.1625 18.844 14.6959 18.9302 15.2735 18.9954C16.0274 19.0805 16.5462 19.0826 17.1111 19.0038C17.5448 18.9428 18.0405 18.8629 18.5287 18.762L18.4521 17.9074C18.409 17.4386 18.3439 16.5335 18.3072 15.8976C18.2694 15.2616 18.2704 14.386 18.3754 13.1645L19.5022 12.7083C20.1217 12.457 21.3136 12.0881 22.1515 11.8873C22.9895 11.6865 23.6857 11.5015 23.7004 11.4763C23.7151 11.4511 23.3843 11.0453 22.9654 10.5744C22.5464 10.1035 21.8617 9.2993 21.4427 8.78738C21.0238 8.27546 20.6825 7.82029 20.6835 7.7772C20.6846 7.7341 20.7675 7.80978 21.049 8.19451L21.5477 7.97272C21.8218 7.85078 22.1295 7.7793 22.2303 7.81294C22.3847 7.8655 22.3889 7.85814 22.2566 7.76248C22.1253 7.66787 22.1389 7.64895 22.3353 7.6479C22.4981 7.6458 22.5548 7.59639 22.5191 7.48812C22.4729 7.34937 22.5075 7.34832 22.8078 7.47866C22.9958 7.5596 24.1656 8.12934 25.4068 8.74533C26.648 9.36027 27.8294 9.95524 28.3996 10.2674L29.4223 8.5393L28.8878 7.54068C28.5938 6.99091 28.3502 6.49476 28.3481 6.43694C28.3449 6.37913 28.5203 6.27401 28.7387 6.20253C29.0842 6.09005 29.1567 6.09636 29.3047 6.25509C29.3982 6.35495 29.7248 6.90997 30.5869 8.5393L29.9925 9.53792C29.667 10.0866 29.3982 10.5838 29.3961 10.6417C29.394 10.6995 29.6324 10.8645 29.9264 11.0096C30.2488 11.1683 30.4777 11.3554 30.5039 11.4826C30.5281 11.5982 30.6698 12.3309 30.8189 13.1119C30.9681 13.893 31.2012 15.1218 31.3377 15.845C31.4742 16.5672 31.7577 18.0808 31.9667 19.2088C32.1757 20.3356 32.3321 21.2701 32.3153 21.2848C32.2985 21.2985 31.9772 20.959 31.6023 20.5301C31.2274 20.1002 30.8725 19.7617 30.8147 19.7764C30.757 19.7911 30.5774 20.2736 30.4157 20.8465C30.254 21.4204 29.9558 22.48 29.7531 23.2032C29.5504 23.9254 29.2449 25.0376 29.0748 25.6735C28.9046 26.3095 28.7156 26.8771 28.6558 26.9349C28.5812 27.0064 28.3786 26.8624 28.0268 26.4882C27.7412 26.1844 27.4828 25.9363 27.4545 25.9363C27.4261 25.9363 27.0239 26.5744 26.5619 27.3554C26.0999 28.1364 25.6746 28.7503 25.6168 28.7219C25.5591 28.6936 25.4772 28.7282 25.4341 28.8008C25.383 28.8877 25.4005 28.9052 25.4866 28.8533C25.558 28.8102 25.6168 28.7987 25.6168 28.827C25.6168 28.8554 25.1443 29.6838 24.5667 30.6666C23.9892 31.6495 23.4925 32.4536 23.4642 32.4536C23.4358 32.4536 23.2111 32.0458 22.9654 31.5464C22.7196 31.0471 22.4834 30.6214 22.4403 30.6004C22.3973 30.5794 21.428 31.3278 20.2876 32.2634C19.1473 33.1989 17.8126 34.3026 17.3211 34.7147C16.8297 35.1268 16.3698 35.4957 16.2973 35.5357C16.2207 35.5777 15.9802 35.44 15.7198 35.2067C15.474 34.9859 14.6235 34.2764 13.8296 33.6299C12.867 32.8457 12.412 32.4102 12.4645 32.3233C12.5118 32.2455 12.5013 32.2234 12.4383 32.2686C12.3805 32.3096 11.9783 32.0594 11.5457 31.7115C11.112 31.3635 10.6048 30.963 10.4168 30.8201C10.2289 30.6782 10.0399 30.5804 9.9968 30.6035C9.95375 30.6267 9.75318 31.004 9.55052 31.4403C9.34785 31.8776 9.12418 32.2602 9.05173 32.2917C8.96982 32.3275 8.65269 31.9081 8.20116 31.1659C7.80527 30.5152 7.25923 29.6049 6.98621 29.1424C6.71424 28.6799 6.18604 27.8043 5.81431 27.1977C5.44153 26.5912 5.10236 26.0582 5.0593 26.0141C5.0173 25.9699 4.73588 26.1823 4.43345 26.4871C4.13103 26.7909 3.86116 27.0159 3.8328 26.9875C3.80445 26.9591 3.54193 26.0835 3.25 25.0428C2.95808 24.0021 2.6294 22.8669 2.5202 22.52C2.41099 22.1731 2.19362 21.4162 2.03611 20.8381C1.87964 20.2599 1.72213 19.748 1.68643 19.7018C1.65178 19.6545 1.3798 19.9152 1.08263 20.2799C0.785454 20.6447 0.442077 21.0378 0.318167 21.1534C0.194257 21.2691 0.0934481 21.3164 0.0944982 21.2586C0.0955483 21.2007 0.165904 20.8223 0.250961 20.4176C0.336018 20.0129 0.554435 18.9008 0.7361 17.9473C0.916715 16.9939 1.12673 15.8576 1.20234 15.4245C1.27794 14.9904 1.46276 13.9497 1.61397 13.1119C1.76413 12.2731 1.90905 11.5162 1.9353 11.43C1.9605 11.3428 2.22092 11.1536 2.5139 11.0096C2.80582 10.8645 3.04419 10.6879 3.04314 10.6154C3.04104 10.5428 2.85832 10.1886 2.63676 9.827C2.41519 9.46539 2.15477 9.01654 2.05921 8.82837C1.9521 8.61919 1.9206 8.43629 1.97625 8.35534C2.02561 8.28281 2.29338 7.79822 2.56955 7.27789ZM19.0454 27.1756C19.2145 27.0821 19.3678 27.0253 19.3867 27.0495C19.4056 27.0737 19.2722 27.4122 19.0905 27.8021C18.9078 28.1921 18.7451 28.5832 18.7272 28.6694C18.7104 28.7566 18.6464 28.8386 18.5865 28.8533C18.5256 28.868 18.4762 28.9511 18.4762 29.0373C18.4762 29.1245 18.0814 30.0107 17.5994 31.0082C17.1164 32.0058 16.6197 33.058 16.4947 33.3471C16.3509 33.6803 16.2322 33.8338 16.1713 33.7676C16.1188 33.7098 15.7597 32.9771 15.3743 32.1383C14.9879 31.3005 14.3421 29.9287 13.9388 29.0898C13.5356 28.2521 13.1964 27.5183 13.1859 27.4605C13.1754 27.4027 13.1334 27.2965 13.0914 27.224C13.0494 27.1515 13.0631 27.0926 13.1208 27.0926C13.1786 27.0926 13.7099 27.3018 14.3022 27.5562C14.8944 27.8116 15.5203 28.0954 15.6935 28.1869C15.8668 28.2783 16.1031 28.3519 16.2186 28.3509C16.3341 28.3498 16.9011 28.1312 17.4787 27.8652C18.0562 27.5993 18.576 27.3733 18.6338 27.3628C18.6915 27.3533 18.8774 27.2682 19.0454 27.1756ZM11.8691 26.9875C11.804 26.9875 11.4669 27.5667 11.1204 28.2752C10.7739 28.9837 10.5029 29.5934 10.5187 29.6291C10.5344 29.6659 11.0206 30.0758 11.5982 30.5394C12.1757 31.003 13.0631 31.7304 13.5702 32.1551C14.0785 32.5798 14.5153 32.8909 14.5416 32.8478C14.5689 32.8047 14.3011 32.1425 13.9462 31.3762C13.5923 30.6098 13.0788 29.5345 12.8058 28.9847C12.5328 28.436 12.2366 27.7612 12.1484 27.4868C12.0602 27.2124 11.9342 26.9875 11.8691 26.9875ZM9.288 21.6191C9.51902 21.3931 9.71223 21.2081 9.71748 21.2071C9.72273 21.2071 9.71223 21.431 9.69438 21.7053C9.67653 21.9797 9.63137 22.3938 9.59462 22.6251C9.55892 22.8564 9.51377 23.1644 9.49486 23.3084C9.47596 23.4534 9.43396 23.8077 9.40036 24.0967C9.3678 24.3858 9.3174 24.7884 9.28905 24.9902C9.26069 25.1931 9.21134 25.642 9.17984 25.9889C9.14834 26.3358 9.10108 26.8088 9.07693 27.04C9.05173 27.2713 9.00552 27.5793 8.97402 27.7233C8.94252 27.8684 8.89001 28.3645 8.85536 28.827C8.82176 29.2896 8.75875 29.7395 8.7157 29.8257C8.66005 29.9381 8.49203 29.729 8.1266 29.0898C7.84518 28.5989 7.5543 28.1375 7.4808 28.0649C7.40624 27.9924 7.31384 27.8274 7.27603 27.697C7.23718 27.5667 7.13112 27.3806 7.03976 27.2839C6.94841 27.1862 6.77934 26.9265 6.66383 26.7058C6.54937 26.485 6.42861 26.2811 6.39606 26.2517C6.36456 26.2233 6.206 25.9626 5.75026 25.1479L7.30964 23.588C8.16651 22.7302 9.05698 21.8441 9.288 21.6191ZM10.588 23.6426C10.5502 23.6237 10.4935 23.7183 10.4599 23.8529C10.4263 23.9874 10.3759 24.3806 10.3465 24.7275C10.3181 25.0743 10.2467 25.642 10.19 25.9889C10.1323 26.3358 10.0598 26.998 10.0283 27.4605L9.97055 28.3015C10.3622 27.5688 10.4924 27.285 10.5124 27.1977C10.5323 27.1115 10.5775 27.0169 10.6122 26.9875C10.6468 26.9591 10.9188 26.4503 11.216 25.8575C11.5131 25.2646 11.7536 24.7211 11.7504 24.6486C11.7462 24.5761 11.4995 24.328 11.2002 24.0967C10.9009 23.8655 10.6258 23.6616 10.588 23.6426ZM12.8289 16.502C12.9391 16.3138 13.0547 16.1603 13.0851 16.1603C13.1145 16.1603 13.1072 16.8583 12.9979 19.2613L13.4537 19.6313C13.7036 19.8353 14.1572 20.1895 14.4618 20.4197C14.7652 20.6499 15.0141 20.8738 15.0131 20.9169C15.012 20.96 15.0582 20.9958 15.116 20.9958C15.1737 20.9958 15.3281 21.0935 15.4572 21.2123C15.6536 21.391 15.6893 21.5214 15.6673 21.9744C15.6526 22.274 15.5938 22.5788 15.536 22.6514C15.4783 22.7239 15.3837 22.7596 15.326 22.7302C15.2682 22.7018 15.221 22.725 15.221 22.7828C15.221 22.8406 15.1622 22.8868 15.0897 22.8868C15.0183 22.8858 14.7694 22.9762 14.5384 23.0866C14.3074 23.1969 13.8349 23.4124 13.4883 23.5638C13.1418 23.7152 12.7291 23.8382 12.5695 23.8371C12.4089 23.835 12.2576 23.7646 12.2282 23.6763C12.1999 23.5901 12.1285 23.5186 12.0707 23.5186C12.013 23.5186 11.8597 23.4282 11.7294 23.3168C11.6003 23.2053 11.384 23.0277 11.2506 22.9226C11.0532 22.766 10.9797 22.5452 10.8579 21.7316C10.7749 21.1829 10.7077 20.5911 10.7088 20.4176C10.7098 20.2337 10.8778 19.8395 11.1109 19.4716C11.3315 19.1247 11.763 18.392 12.0697 17.8422C12.3763 17.2935 12.7176 16.6901 12.8289 16.502ZM19.3856 16.1603C19.3489 16.0741 19.3447 16.4999 19.3762 17.1064C19.4087 17.714 19.456 18.4582 19.4812 18.762C19.5242 19.2887 19.5127 19.3212 19.2113 19.4716C19.038 19.5588 18.8375 19.7123 18.765 19.8132C18.6936 19.9141 18.3744 20.1737 18.0562 20.3892C17.7391 20.6047 17.3085 20.9359 17.0996 21.1251C16.7583 21.4352 16.7226 21.5193 16.7321 21.9839C16.7436 22.4937 16.7499 22.5021 17.2949 22.7985C17.5984 22.9636 17.8451 23.0624 17.843 23.0193C17.8409 22.9762 17.9239 23.014 18.0268 23.1044C18.1297 23.1948 18.4269 23.3557 18.6863 23.4608C18.9467 23.5659 19.3132 23.7173 19.5001 23.7961C19.688 23.8749 19.8771 23.938 19.9201 23.9359C19.9642 23.9349 20.0703 23.8655 20.1564 23.7835C20.2435 23.7015 20.4105 23.5491 20.5281 23.445C20.6447 23.341 20.9051 23.1328 21.1057 22.9835C21.4301 22.7407 21.4784 22.6377 21.5561 22.0375C21.6044 21.6664 21.6633 21.0914 21.6874 20.7593C21.7273 20.2126 21.6937 20.0886 21.3377 19.4642C21.1214 19.0837 20.8967 18.6937 20.8389 18.597C20.7812 18.5003 20.4777 17.9715 20.1637 17.4218C19.8498 16.873 19.561 16.4 19.5232 16.3706C19.4843 16.3422 19.4224 16.2476 19.3856 16.1603ZM15.641 23.6983C15.9592 23.5428 16.2312 23.4156 16.2448 23.4145C16.2595 23.4145 16.4254 23.4934 16.6123 23.5922C16.8003 23.6899 17.025 23.7835 17.1111 23.8003C17.1983 23.8161 17.2928 23.8665 17.3211 23.9107C17.3506 23.9548 17.4451 24.0074 17.5312 24.0263C17.6183 24.0452 18.072 24.2345 18.5393 24.4468C19.3825 24.8294 19.3898 24.8357 19.3646 25.2005L19.3583 25.2943C19.3462 25.4745 19.3332 25.6666 19.3279 25.7524C19.3195 25.875 19.0443 26.0625 18.5025 26.3147C18.0552 26.5229 17.6183 26.7089 17.5312 26.7278C17.4451 26.7468 17.1143 26.8866 16.7961 27.039C16.227 27.3113 16.2144 27.3123 15.851 27.1294C15.6494 27.0264 15.4604 26.9391 15.431 26.9349C15.4026 26.9307 15.284 26.875 15.1685 26.8098C15.053 26.7457 14.9112 26.69 14.8535 26.6858C14.7957 26.6816 14.404 26.5229 13.9829 26.3337C13.2773 26.0151 13.2132 25.9605 13.1607 25.621C13.1292 25.4191 13.083 25.17 13.0599 25.0691C13.0263 24.9261 13.2216 24.7884 13.9346 24.452C14.4408 24.2145 14.9007 24.0105 14.9585 24C15.0162 23.9895 15.3239 23.8539 15.641 23.6983ZM22.7553 21.206C22.7123 21.206 22.6766 21.2176 22.6766 21.2323C22.6766 21.247 22.7448 21.7789 22.8289 22.4149C22.9129 23.0508 23.0063 23.7372 23.0357 23.9391C23.0662 24.1419 23.1638 24.9692 23.2552 25.7786C23.3465 26.588 23.4432 27.511 23.4715 27.8284C23.4988 28.1469 23.5461 28.5254 23.5755 28.6694C23.6049 28.8144 23.6521 29.1687 23.6815 29.4578C23.7109 29.7468 23.7571 30.0075 23.7855 30.0359C23.8149 30.0653 23.8369 30.0054 23.8348 29.9045C23.8338 29.8036 23.8789 29.7206 23.9367 29.7206C23.9944 29.7206 24.0743 29.6144 24.1131 29.484C24.152 29.3537 24.2475 29.1771 24.3242 29.0898C24.4008 29.0036 24.4638 28.8964 24.4628 28.8533C24.4628 28.8102 24.6056 28.5737 24.7799 28.3277C24.9553 28.0818 25.097 27.8452 25.0949 27.8021C25.0939 27.7591 25.1747 27.634 25.2755 27.5236C25.3774 27.4143 25.5685 27.1178 25.7019 26.8666C25.8342 26.6154 26.0348 26.2674 26.1461 26.094C26.2574 25.9205 26.4065 25.6609 26.4758 25.5158C26.5462 25.3718 26.605 25.2215 26.6092 25.1816C26.6123 25.1427 25.7638 24.2323 24.7243 23.158C23.6847 22.0848 22.7994 21.206 22.7553 21.206ZM21.3178 24.0536C21.6202 23.8171 21.8985 23.6237 21.9363 23.6237C21.9741 23.6237 22.0045 23.6595 22.0056 23.7026C22.0056 23.7457 22.0665 24.349 22.14 25.0428C22.2145 25.7366 22.2891 26.3988 22.307 26.5145C22.3248 26.6301 22.371 27.0558 22.4813 28.1963L22.202 27.7233C22.0486 27.4637 21.7567 26.896 21.554 26.4619C21.3503 26.0288 21.0962 25.5085 20.9891 25.3056C20.882 25.1038 20.7875 24.8357 20.7801 24.7106C20.7707 24.5519 20.9355 24.3511 21.3178 24.0536ZM24.908 17.0055C24.865 17.0076 24.4985 17.5363 24.0942 18.1797C23.6899 18.823 23.2804 19.4947 23.1827 19.6734L23.0053 19.9971C26.2101 23.2117 27.151 24.1335 27.1657 24.1209C27.1794 24.1073 27.1395 23.9317 27.0775 23.7288C27.0155 23.527 26.9263 23.2663 26.8801 23.1507C26.8339 23.0351 26.7352 22.7281 26.6606 22.4674C26.5861 22.2078 26.5168 21.9471 26.5062 21.8893C26.4957 21.8315 26.3351 21.3111 26.1492 20.733C25.9634 20.1548 25.788 19.6114 25.7596 19.5241C25.7313 19.4379 25.7071 19.3433 25.705 19.3139C25.7029 19.2855 25.6525 19.1667 25.5916 19.0511C25.5318 18.9355 25.4173 18.6043 25.3375 18.3153C25.2587 18.0262 25.1695 17.6719 25.1401 17.5269C25.1107 17.3829 25.0634 17.2052 25.0361 17.1327C25.0088 17.0602 24.9521 17.0034 24.908 17.0055ZM25.2871 13.2696L25.6116 13.6375C25.7901 13.8404 26.0799 14.1715 26.2553 14.3733C26.4306 14.5762 26.7016 14.8947 26.857 15.0829C27.0124 15.27 27.2907 15.578 27.4765 15.7662C27.6624 15.9543 27.8178 16.1551 27.822 16.2129C27.8262 16.2707 27.9344 16.4147 28.0625 16.5335C28.1895 16.6512 28.5308 17.0223 28.8196 17.3566C29.1084 17.6919 29.4748 18.104 29.6334 18.2722C29.8686 18.5223 29.9138 18.6506 29.876 18.9722C29.8508 19.1888 29.6135 20.1002 29.3467 20.9958C29.0811 21.8924 28.849 22.6724 28.8311 22.7302C28.8143 22.788 28.7618 22.9772 28.7167 23.1507C28.6705 23.3241 28.6054 23.5133 28.5707 23.5712C28.5371 23.629 28.4941 23.7951 28.4741 23.9391C28.4552 24.0841 28.4059 24.2376 28.367 24.2807C28.3271 24.3238 28.2305 24.1588 28.1517 23.9128C28.073 23.6668 27.9942 23.3956 27.9753 23.3084C27.9575 23.2222 27.8682 22.9499 27.7769 22.7039C27.6865 22.458 27.6351 22.2572 27.6645 22.2572C27.6928 22.2572 27.6729 22.1741 27.6193 22.0732C27.5658 21.9723 27.3243 21.2512 27.0827 20.4702C26.8412 19.6902 26.6344 19.0038 26.6239 18.946C26.6123 18.8882 26.4558 18.392 26.2763 17.8422C26.0967 17.2935 25.8447 16.5125 25.7166 16.1078C25.5885 15.7031 25.4646 15.2542 25.4415 15.1092C25.4184 14.9652 25.3743 14.4921 25.3428 14.058L25.2871 13.2696ZM28.4258 11.4385C28.3533 11.4427 28.2231 11.4742 28.137 11.5078C28.0509 11.5415 27.4755 11.6676 26.8601 11.7885C26.2437 11.9094 25.7397 12.0555 25.7397 12.1133C25.7397 12.1711 26.3687 12.9511 27.1384 13.8478C27.9081 14.7434 28.6957 15.6442 28.8889 15.8481C29.0821 16.0521 29.5116 16.5608 29.8434 16.9782C30.1752 17.3955 30.4945 17.7371 30.5522 17.7371C30.6121 17.7371 30.6299 17.612 30.5953 17.448C30.5606 17.2893 30.5134 17.0171 30.4913 16.8436C30.4682 16.6702 30.3989 16.2676 30.337 15.9501C30.2832 15.6784 30.2241 15.3723 30.1923 15.2073L30.1919 15.2053L30.1784 15.1354C30.1532 15.0051 30.1122 14.7928 30.0891 14.6624C30.065 14.5321 30.0167 14.2609 29.982 14.058C29.9463 13.8551 29.8655 13.4294 29.8025 13.1119C29.7806 13.0034 29.7586 12.8934 29.7383 12.7922C29.6989 12.5962 29.6662 12.4329 29.6544 12.3761C29.6376 12.2889 29.6198 12.1596 29.6156 12.087C29.6103 12.0145 29.3709 11.8368 29.0821 11.6928C28.7933 11.5478 28.4983 11.4342 28.4258 11.4385ZM23.2541 12.6568C23.5429 12.5779 23.8737 12.5128 23.9892 12.5107C24.1457 12.5086 24.2003 12.5779 24.2034 12.784C24.2066 12.9353 24.2423 13.7332 24.2822 14.5573C24.3305 15.5349 24.32 16.0552 24.2517 16.0552C24.194 16.0552 24.1467 16.1025 24.1467 16.1603C24.1467 16.2182 23.8107 16.7974 23.399 17.448C22.9885 18.0987 22.5632 18.7368 22.454 18.8671C22.2744 19.0826 22.2503 19.0879 22.183 18.9197C22.1431 18.8188 22.0486 18.6769 21.973 18.6043C21.8985 18.5318 21.8365 18.4025 21.8365 18.3153C21.8365 18.2291 21.8008 18.1576 21.7578 18.1565C21.7147 18.1565 21.5131 17.837 21.3115 17.447C21.1088 17.057 20.8967 16.688 20.8389 16.626C20.7812 16.564 20.6394 16.3275 20.5239 16.1004C20.4084 15.8734 20.2845 15.6642 20.2498 15.6348C20.2141 15.6064 20.0608 15.3457 19.9086 15.0566C19.7552 14.7675 19.6303 14.4722 19.6313 14.3996C19.6313 14.3271 19.6901 14.2766 19.7626 14.2871C19.8351 14.2977 20.2719 14.243 20.7339 14.1652C21.5593 14.0275 21.5834 14.0149 22.1515 13.4126C22.6073 12.928 22.8393 12.7692 23.2541 12.6568ZM8.47943 12.5285L8.19591 12.4959L8.1329 14.2493L8.0699 16.0027C9.62402 18.3247 10.1228 18.9985 10.1806 18.9985C10.2383 18.9985 10.3087 18.9155 10.336 18.8146C10.3643 18.7137 10.5691 18.3468 10.7917 17.9999C11.0143 17.653 11.5625 16.7311 12.0098 15.9501C12.4572 15.1691 12.7953 14.4722 12.7617 14.3996C12.7281 14.3271 12.559 14.2682 12.3857 14.2682C12.2125 14.2682 12.035 14.2525 11.992 14.2325C11.9489 14.2125 11.658 14.1536 11.3451 14.1011C10.9618 14.037 10.7056 13.9245 10.5575 13.7563C10.4368 13.6196 10.1491 13.3222 9.91805 13.0962C9.68703 12.8702 9.40351 12.6799 9.288 12.6725C9.17249 12.6652 9.03073 12.6484 8.97297 12.6347C8.91522 12.6221 8.84486 12.6 8.81546 12.5863C8.78711 12.5737 8.63589 12.5474 8.47943 12.5285ZM6.74994 13.7164C6.84865 13.5576 6.98936 13.4273 7.06392 13.4273C7.13742 13.4273 7.18363 13.4746 7.16682 13.5324C7.14897 13.5902 7.13007 13.9098 7.12272 14.2419C7.11642 14.5741 7.07232 14.9179 7.02611 15.004C6.97991 15.0913 6.9127 15.3278 6.87595 15.5296C6.84025 15.7325 6.71319 16.2287 6.59453 16.6334C6.47587 17.0381 6.34881 17.4165 6.3131 17.4743C6.27845 17.5321 6.2375 17.6509 6.22385 17.7371C6.2102 17.8244 6.05268 18.3205 5.87417 18.8409C5.69566 19.3612 5.48354 20.0234 5.40268 20.3125C5.32182 20.6016 5.11076 21.2754 4.93539 21.8104C4.75898 22.3455 4.61512 22.8301 4.61512 22.8879C4.61512 22.9457 4.56051 23.1234 4.49331 23.2821C4.4261 23.4408 4.3652 23.5953 4.35785 23.6237C4.35049 23.6531 4.30954 23.8182 4.26649 23.9916C4.21923 24.1819 4.15308 24.2649 4.09952 24.2019C4.05017 24.144 3.95776 23.9317 3.89266 23.7288C3.82755 23.527 3.7551 23.2663 3.73094 23.1507C3.70574 23.0351 3.58288 22.6093 3.45687 22.2046C3.32981 21.7999 3.21325 21.3984 3.1954 21.3111C3.1786 21.2249 3.11139 21.0115 3.04839 20.8381C2.98433 20.6646 2.95598 20.4996 2.98538 20.4702C3.01479 20.4418 2.98013 20.3567 2.90873 20.282C2.83627 20.2063 2.81317 20.1475 2.85622 20.1506C2.90033 20.1527 2.88773 20.0602 2.82997 19.9446C2.77222 19.829 2.70186 19.604 2.67351 19.4453C2.64515 19.2866 2.59685 19.0385 2.56535 18.8934C2.5223 18.6874 2.60735 18.5244 2.95913 18.1429C3.2059 17.8738 3.62069 17.4049 3.88006 17.1001C4.14048 16.7953 4.4618 16.4 4.59411 16.2213C4.72643 16.0437 5.10446 15.5938 5.43418 15.2227C5.76391 14.8506 6.15454 14.4249 6.30155 14.2766C6.44962 14.1274 6.65123 13.8751 6.74994 13.7164ZM7.57321 17.0013C7.52595 17.0013 7.35689 17.4155 7.19833 17.9211C7.03976 18.4267 6.9211 18.865 6.93581 18.8934C6.94946 18.9228 6.90955 19.0406 6.84655 19.1562C6.78354 19.2718 6.70794 19.4852 6.67853 19.6292C6.64808 19.7743 6.52627 20.1643 6.40761 20.4965C6.2879 20.8286 6.17029 21.2071 6.14614 21.3374C6.12094 21.4677 6.09784 21.5855 6.09364 21.6002C6.08944 21.6149 6.07158 21.6622 6.05478 21.7053C6.03798 21.7484 5.92037 22.0921 5.79226 22.4674C5.66415 22.8437 5.53814 23.2453 5.51189 23.3609C5.48564 23.4766 5.43838 23.6773 5.40688 23.8077C5.37643 23.938 5.38588 24.0431 5.42893 24.041C5.47304 24.0389 6.39396 23.1402 7.4766 22.0438C8.56029 20.9474 9.44761 20.014 9.44971 19.9709C9.45181 19.9278 9.12838 19.3959 8.7304 18.7883C8.33242 18.1818 7.92919 17.5311 7.83363 17.3429C7.73912 17.1548 7.62151 17.0013 7.57321 17.0013ZM3.35186 11.7097C3.66374 11.5457 3.94726 11.4752 4.19193 11.5005C4.39565 11.5215 4.68127 11.5804 4.82513 11.6308C4.97005 11.6813 5.37118 11.7864 5.71771 11.8642C6.06424 11.942 6.39501 11.9914 6.45277 11.9756C6.51052 11.9588 6.61658 11.9714 6.68904 12.0029C6.78564 12.045 6.76149 12.1385 6.60188 12.3498C6.48217 12.5086 6.13879 12.9059 5.84057 13.2318C5.54234 13.5587 5.15591 14.0054 4.98265 14.2262C4.80938 14.4469 4.51431 14.7833 4.32634 14.9736C4.13838 15.1638 3.98507 15.3667 3.98507 15.4245C3.98507 15.4823 3.94621 15.5412 3.89896 15.5559C3.8517 15.5706 3.43797 16.0079 2.98013 16.5283C2.5223 17.0486 2.06551 17.5689 1.9647 17.6846C1.78724 17.8885 1.78303 17.8822 1.83974 17.4743C1.87229 17.2431 1.91535 17.0297 1.93635 17.0013C1.95735 16.9719 2.0046 16.688 2.04031 16.3706C2.07601 16.0521 2.14952 15.6274 2.20307 15.4245C2.25557 15.2216 2.32593 14.8432 2.35848 14.5836C2.39104 14.3229 2.46979 13.9213 2.5349 13.6901C2.59895 13.4588 2.66721 13.1277 2.68716 12.9543C2.70606 12.7808 2.75437 12.5201 2.79427 12.3761C2.83312 12.231 2.86882 12.0786 2.87408 12.0355C2.87828 11.9924 3.09354 11.8463 3.35186 11.7097ZM22.6241 8.48674C22.5957 8.48674 22.5716 8.50987 22.5716 8.5393C22.5716 8.56768 23.0273 9.12376 23.5828 9.77444C24.1394 10.4251 24.6591 11.0274 24.7379 11.1147C24.8608 11.2513 24.9668 11.2545 25.537 11.1336C25.8983 11.0579 26.3729 10.9391 26.5903 10.8708C26.8087 10.8025 26.9746 10.7163 26.9599 10.6795C26.9452 10.6427 26.7667 10.5313 26.564 10.4304C26.3603 10.3305 25.4026 9.85222 24.4355 9.36763C23.4684 8.88304 22.6524 8.48674 22.6241 8.48674ZM8.39542 9.17421C9.11788 8.79999 9.74373 8.49305 9.78679 8.49095C9.82984 8.48884 9.86344 8.52248 9.86134 8.56558C9.86029 8.60868 9.60617 8.92824 9.29745 9.27513C8.98872 9.62201 8.57709 10.0835 8.38177 10.3011C8.18751 10.5187 7.94494 10.8141 7.84413 10.9581C7.69817 11.1651 7.60051 11.2072 7.37159 11.1578C7.21303 11.1231 6.94105 11.0768 6.76779 11.0548C6.59453 11.0327 6.25115 10.9549 6.00543 10.8813C5.75971 10.8067 5.55809 10.7226 5.55704 10.6942C5.55599 10.6648 5.87522 10.463 6.2669 10.2443C6.65753 10.0257 7.00091 9.84802 7.03031 9.85012C7.05972 9.85117 7.67402 9.54738 8.39542 9.17421ZM21.9352 29.5629C21.9331 29.5051 21.6349 28.867 21.2726 28.1438L20.6132 26.8298L20.3937 27.3554C20.2729 27.6445 19.9149 28.4255 19.5977 29.0898C19.2817 29.7552 18.8049 30.7602 18.5393 31.3236C18.2736 31.887 18.0562 32.42 18.0562 32.5062C18.0562 32.5934 18.009 32.6639 17.9512 32.6639C17.8934 32.6639 17.8462 32.7112 17.8462 32.769C17.8462 32.8341 17.9365 32.8278 18.0825 32.7521C18.2127 32.6859 18.7745 32.2476 19.331 31.7798C19.8876 31.312 20.7024 30.6456 21.1414 30.2987C21.5813 29.9518 21.9384 29.6207 21.9352 29.5629Z" fill="white" fill-opacity="0.94"/>
</svg>
